<?xml version="1.0" encoding="UTF-8" standalone="no"?>
<svg xmlns="http://www.w3.org/2000/svg" xmlns:xlink="http://www.w3.org/1999/xlink" focusable="true" height="518.0" id="workspace" preserveAspectRatio="xMinYMin" viewBox="-104.0 -245.0 727.0 518.0" width="727.0">
<path d="M429,-29 C438,-29 447,-28 456,-28" fill="#495879" fill-opacity="1" stroke="#495879" stroke-opacity="1" stroke-width="1px" style="fill:none " visibility="visible"/>
<rect fill="#CC0033" fill-opacity="0.4" height="18" rx="0" ry="0" stroke="#FF9933" stroke-opacity="0.4" stroke-width="1px" visibility="hidden" width="70" x="358" y="-21"/>
<path d="M451,-37 C443,-26.333333333333336 435,-15.666666666666666 427,-5" fill-opacity="0.4" stroke="#CC0033" stroke-opacity="0.4" stroke-width="1px" style="fill:none " visibility="hidden"/>
<path d="M-91,0 C-60.66666666666667,0 -30.333333333333332,0 0,0" fill-opacity="0.4" stroke="#CC0033" stroke-opacity="0.4" stroke-width="1px" style="fill:none " visibility="hidden"/>
<path d="M427,-5 C436,-5 445,-4 454,-4" fill="#495879" fill-opacity="1" stroke="#495879" stroke-opacity="1" stroke-width="1px" style="fill:none " visibility="visible"/>
<path d="M429,-53 C438,-53 449,-52 458,-52" fill="#495879" fill-opacity="1" stroke="#495879" stroke-opacity="1" stroke-width="1px" style="fill:none " visibility="visible"/>
<path d="M220,-38 C222.66666666666666,-5.666666666666785 225.33333333333334,26.666666666666785 228,59" stroke="#3f96ff" stroke-opacity="1" stroke-width="2px" style="fill:none " visibility="hidden"/>
<path d="M229,-12 L233.42683247218778,-7.949919227572883M229,-12 L224.94991922757288,-7.573167527812221" stroke="#9b74e6" stroke-opacity="1" stroke-width="2px" visibility="visible"/>
<path d="M0,0 C28,0 56,-112 84,-112 56,-109 28,5 0,7 Z" fill="#495879" fill-opacity="1" stroke="#495879" stroke-opacity="1" stroke-width="1px" style="fill:#495879 " visibility="visible"/>
<path d="M249,-17 C258,-17 269,-77 278,-77" fill="#495879" fill-opacity="1" stroke="#495879" stroke-opacity="1" stroke-width="1px" style="fill:none " visibility="visible"/>
<path d="M261,142 C270,142 280,217 289,217" fill="#495879" fill-opacity="1" stroke="#495879" stroke-opacity="1" stroke-width="1px" style="fill:none " visibility="visible"/>
<path d="M261,142 C270,142 280,192 289,192" fill="#495879" fill-opacity="1" stroke="#495879" stroke-opacity="1" stroke-width="1px" style="fill:none " visibility="visible"/>
<path d="M0,0 C28,0 56,-139 84,-139 56,-136 28,5 0,7 Z" fill="#495879" fill-opacity="1" stroke="#495879" stroke-opacity="1" stroke-width="1px" style="fill:#495879 " visibility="visible"/>
<path d="M0,0 C28,0 56,70 84,70 56,73 28,5 0,7 Z" fill="#495879" fill-opacity="1" stroke="#495879" stroke-opacity="1" stroke-width="1px" style="fill:#495879 " visibility="visible"/>
<path d="M155,-139 C164,-139 175,-139 184,-139" fill="#495879" fill-opacity="1" stroke="#495879" stroke-opacity="1" stroke-width="1px" style="fill:none " visibility="visible"/>
<path d="M0,0 C28,0 56,-168 84,-168 56,-165 28,5 0,7 Z" fill="#495879" fill-opacity="1" stroke="#495879" stroke-opacity="1" stroke-width="1px" style="fill:#495879 " visibility="visible"/>
<path d="M257,-168 C266,-168 276,-155 285,-155" fill="#495879" fill-opacity="1" stroke="#495879" stroke-opacity="1" stroke-width="1px" style="fill:none " visibility="visible"/>
<path d="M257,-168 C266,-168 277,-180 286,-180" fill="#495879" fill-opacity="1" stroke="#495879" stroke-opacity="1" stroke-width="1px" style="fill:none " visibility="visible"/>
<path d="M187,-168 C196,-168 207,-168 216,-168" fill="#495879" fill-opacity="1" stroke="#495879" stroke-opacity="1" stroke-width="1px" style="fill:none " visibility="visible"/>
<path d="M119,-168 C128,-168 139,-168 148,-168" fill="#495879" fill-opacity="1" stroke="#495879" stroke-opacity="1" stroke-width="1px" style="fill:none " visibility="visible"/>
<path d="M261,142 C270,142 280,167 289,167" fill="#495879" fill-opacity="1" stroke="#495879" stroke-opacity="1" stroke-width="1px" style="fill:none " visibility="visible"/>
<path d="M261,142 C270,142 280,142 289,142" fill="#495879" fill-opacity="1" stroke="#495879" stroke-opacity="1" stroke-width="1px" style="fill:none " visibility="visible"/>
<path d="M261,142 C270,142 280,117 289,117" fill="#495879" fill-opacity="1" stroke="#495879" stroke-opacity="1" stroke-width="1px" style="fill:none " visibility="visible"/>
<path d="M261,142 C270,142 280,92 289,92" fill="#495879" fill-opacity="1" stroke="#495879" stroke-opacity="1" stroke-width="1px" style="fill:none " visibility="visible"/>
<path d="M261,142 C270,142 280,67 289,67" fill="#495879" fill-opacity="1" stroke="#495879" stroke-opacity="1" stroke-width="1px" style="fill:none " visibility="visible"/>
<path d="M181,70 C190,70 201,142 210,142" fill="#495879" fill-opacity="1" stroke="#495879" stroke-opacity="1" stroke-width="1px" style="fill:none " visibility="visible"/>
<path d="M468,31 C477,31 488,43 497,43" fill="#495879" fill-opacity="1" stroke="#495879" stroke-opacity="1" stroke-width="1px" style="fill:none " visibility="visible"/>
<path d="M468,31 C477,31 488,19 497,19" fill="#495879" fill-opacity="1" stroke="#495879" stroke-opacity="1" stroke-width="1px" style="fill:none " visibility="visible"/>
<path d="M415,31 C424,31 434,31 443,31" fill="#495879" fill-opacity="1" stroke="#495879" stroke-opacity="1" stroke-width="1px" style="fill:none " visibility="visible"/>
<path d="M325,31 C334,31 345,31 354,31" fill="#495879" fill-opacity="1" stroke="#495879" stroke-opacity="1" stroke-width="1px" style="fill:none " visibility="visible"/>
<path d="M249,-17 C258,-17 269,30 278,30" fill="#495879" fill-opacity="1" stroke="#495879" stroke-opacity="1" stroke-width="1px" style="fill:none " visibility="visible"/>
<path d="M181,70 C190,70 201,-17 210,-17" fill="#495879" fill-opacity="1" stroke="#495879" stroke-opacity="1" stroke-width="1px" style="fill:none " visibility="visible"/>
<path d="M249,-17 C258,-17 269,-29 278,-29" fill="#495879" fill-opacity="1" stroke="#495879" stroke-opacity="1" stroke-width="1px" style="fill:none " visibility="visible"/>
<path d="M331,-29 C340,-29 351,-53 360,-53" fill="#495879" fill-opacity="1" stroke="#495879" stroke-opacity="1" stroke-width="1px" style="fill:none " visibility="visible"/>
<path d="M331,-29 C340,-29 351,-29 360,-29" fill="#495879" fill-opacity="1" stroke="#495879" stroke-opacity="1" stroke-width="1px" style="fill:none " visibility="visible"/>
<path d="M331,-29 C340,-29 351,-5 360,-5" fill="#495879" fill-opacity="1" stroke="#495879" stroke-opacity="1" stroke-width="1px" style="fill:none " visibility="visible"/>
<path d="M113,71 C122,71 133,70 142,70" fill="#495879" fill-opacity="1" stroke="#495879" stroke-opacity="1" stroke-width="1px" style="fill:none " visibility="visible"/>
<g focusable="true" height="100" preserveAspectRatio="none" transform="translate(-54,-18) scale(1,1)" visibility="visible" width="100">
<rect fill="rgb(252,235,192)" fill-opacity="0" height="42" rx="6.3" ry="6.3" stroke="rgb(241,163,39)" stroke-opacity="0" stroke-width="1px" style="cursor: default;" width="112" x="-2" y="-3"/>
<rect fill="rgb(80,157,192)" height="36" rx="5.3999999999999995" ry="5.3999999999999995" stroke="rgb(57,113,177)" stroke-width="2px" style="cursor: default;" width="108" x="0" y="0"/>
<text fill="#ffffff" font-family="verdana" font-size="13.4375" font-style="normal" font-weight="bold" style="cursor: default;" visibility="visible" x="11" y="11">
<tspan dy="1em" x="11">The Challenge</tspan>
</text>
<g focusable="true" height="14" preserveAspectRatio="none" transform="translate(0,11) scale(0,0.14)" width="0"/>
</g>
<g focusable="true" height="100" preserveAspectRatio="none" transform="translate(84,53) scale(1,1)" visibility="visible" width="100">
<rect fill="rgb(252,235,192)" fill-opacity="0" height="23" rx="3.4499999999999997" ry="3.4499999999999997" stroke="rgb(241,163,39)" stroke-opacity="0" stroke-width="1px" style="cursor: move;" width="32" x="-2" y="-3"/>
<line stroke="#495879" stroke-opacity="1" stroke-width="1px" style="cursor: move;" visibility="visible" x1="0" x2="28" y1="17" y2="17"/>
<text fill="rgb(82,92,97)" font-family="verdana" font-size="10.75" font-style="normal" font-weight="normal" style="cursor: move;" visibility="visible" x="3" y="3">
<tspan dy="1em" x="3">Login</tspan>
</text>
<g focusable="true" height="11" preserveAspectRatio="none" transform="translate(0,3) scale(0,0.11)" width="0"/>
<ellipse cx="31" cy="17" fill="rgb(224,229,239)" height="6" rx="3" ry="3" stroke="rgb(2,59,185)" stroke-width="1px" style="cursor: default;" visibility="visible" width="6"/>
</g>
<g focusable="true" height="100" preserveAspectRatio="none" transform="translate(142,56) scale(1,1)" visibility="visible" width="100">
<rect fill="rgb(252,235,192)" fill-opacity="0" height="20" rx="3" ry="3" stroke="rgb(241,163,39)" stroke-opacity="0" stroke-width="1px" style="cursor: move;" width="42" x="-2" y="-3"/>
<line stroke="#495879" stroke-opacity="1" stroke-width="1px" style="cursor: move;" x1="0" x2="38" y1="14" y2="14"/>
<text fill="rgb(82,92,97)" font-family="verdana" font-size="8.0625" font-style="normal" font-weight="normal" style="cursor: move;" visibility="visible" x="3" y="3">
<tspan dy="1em" x="3">Firebase</tspan>
</text>
<g focusable="true" height="8" preserveAspectRatio="none" transform="translate(0,3) scale(0,0.08)" width="0"/>
<ellipse cx="41" cy="14" fill="rgb(224,229,239)" height="6" rx="3" ry="3" stroke="rgb(2,59,185)" stroke-width="1px" style="cursor: default;" visibility="visible" width="6"/>
</g>
<g focusable="true" height="100" preserveAspectRatio="none" transform="translate(210,-31) scale(1,1)" visibility="visible" width="100">
<rect fill="rgb(252,235,192)" fill-opacity="0" height="20" rx="3" ry="3" stroke="rgb(241,163,39)" stroke-opacity="0" stroke-width="1px" style="cursor: move;" width="42" x="-2" y="-3"/>
<line stroke="#495879" stroke-opacity="1" stroke-width="1px" style="cursor: move;" x1="0" x2="38" y1="14" y2="14"/>
<text fill="rgb(82,92,97)" font-family="verdana" font-size="8.0625" font-style="normal" font-weight="normal" style="cursor: move;" visibility="visible" x="3" y="3">
<tspan dy="1em" x="3">Interface</tspan>
</text>
<g focusable="true" height="8" preserveAspectRatio="none" transform="translate(0,3) scale(0,0.08)" width="0"/>
<ellipse cx="41" cy="14" fill="rgb(224,229,239)" height="6" rx="3" ry="3" stroke="rgb(2,59,185)" stroke-width="1px" style="cursor: default;" visibility="visible" width="6"/>
</g>
<g focusable="true" height="100" preserveAspectRatio="none" transform="translate(360,-19) scale(1,1)" visibility="visible" width="100">
<rect fill="rgb(252,235,192)" fill-opacity="0" height="20" rx="3" ry="3" stroke="rgb(241,163,39)" stroke-opacity="0" stroke-width="1px" style="cursor: move;" width="70" x="-2" y="-3"/>
<line stroke="#495879" stroke-opacity="1" stroke-width="1px" style="cursor: move;" x1="0" x2="66" y1="14" y2="14"/>
<text fill="rgb(82,92,97)" font-family="verdana" font-size="8.0625" font-style="normal" font-weight="normal" style="cursor: move;" visibility="visible" x="3" y="3">
<tspan dy="1em" x="3">Nature Care Path</tspan>
</text>
<g focusable="true" height="8" preserveAspectRatio="none" transform="translate(0,3) scale(0,0.08)" width="0"/>
<ellipse cx="69" cy="14" fill="rgb(224,229,239)" height="6" rx="3" ry="3" stroke="rgb(2,59,185)" stroke-width="1px" style="cursor: default;" visibility="visible" width="6"/>
</g>
<g focusable="true" height="100" preserveAspectRatio="none" transform="translate(360,-43) scale(1,1)" visibility="visible" width="100">
<rect fill="rgb(252,235,192)" fill-opacity="0" height="20" rx="3" ry="3" stroke="rgb(241,163,39)" stroke-opacity="0" stroke-width="1px" style="cursor: move;" width="72" x="-2" y="-3"/>
<line stroke="#495879" stroke-opacity="1" stroke-width="1px" style="cursor: move;" x1="0" x2="68" y1="14" y2="14"/>
<text fill="rgb(82,92,97)" font-family="verdana" font-size="8.0625" font-style="normal" font-weight="normal" style="cursor: move;" visibility="visible" x="3" y="3">
<tspan dy="1em" x="3">Animal Care Path</tspan>
</text>
<g focusable="true" height="8" preserveAspectRatio="none" transform="translate(0,3) scale(0,0.08)" width="0"/>
<ellipse cx="71" cy="14" fill="rgb(224,229,239)" height="6" rx="3" ry="3" stroke="rgb(2,59,185)" stroke-width="1px" style="cursor: default;" visibility="visible" width="6"/>
</g>
<g focusable="true" height="100" preserveAspectRatio="none" transform="translate(360,-67) scale(1,1)" visibility="visible" width="100">
<rect fill="rgb(252,235,192)" fill-opacity="0" height="20" rx="3" ry="3" stroke="rgb(241,163,39)" stroke-opacity="0" stroke-width="1px" style="cursor: move;" width="71" x="-2" y="-3"/>
<line stroke="#495879" stroke-opacity="1" stroke-width="1px" style="cursor: move;" x1="0" x2="67" y1="14" y2="14"/>
<text fill="rgb(82,92,97)" font-family="verdana" font-size="8.0625" font-style="normal" font-weight="normal" style="cursor: move;" visibility="visible" x="3" y="3">
<tspan dy="1em" x="3">Human Care Path</tspan>
</text>
<g focusable="true" height="8" preserveAspectRatio="none" transform="translate(0,3) scale(0,0.08)" width="0"/>
<ellipse cx="70" cy="14" fill="rgb(224,229,239)" height="6" rx="3" ry="3" stroke="rgb(2,59,185)" stroke-width="1px" style="cursor: default;" visibility="visible" width="6"/>
</g>
<g focusable="true" height="100" preserveAspectRatio="none" transform="translate(278,-43) scale(1,1)" visibility="visible" width="100">
<rect fill="rgb(252,235,192)" fill-opacity="0" height="20" rx="3" ry="3" stroke="rgb(241,163,39)" stroke-opacity="0" stroke-width="1px" style="cursor: move;" width="56" x="-2" y="-3"/>
<line stroke="#495879" stroke-opacity="1" stroke-width="1px" style="cursor: move;" x1="0" x2="52" y1="14" y2="14"/>
<text fill="rgb(82,92,97)" font-family="verdana" font-size="8.0625" font-style="normal" font-weight="normal" style="cursor: move;" visibility="visible" x="3" y="3">
<tspan dy="1em" x="3">Acton Menu</tspan>
</text>
<g focusable="true" height="8" preserveAspectRatio="none" transform="translate(0,3) scale(0,0.08)" width="0"/>
<ellipse cx="55" cy="14" fill="rgb(224,229,239)" height="6" rx="3" ry="3" stroke="rgb(2,59,185)" stroke-width="1px" style="cursor: default;" visibility="visible" width="6"/>
</g>
<g focusable="true" height="100" preserveAspectRatio="none" transform="translate(278,15) scale(1,1)" visibility="visible" width="100">
<rect fill="rgb(252,235,192)" fill-opacity="0" height="21" rx="3.15" ry="3.15" stroke="rgb(241,163,39)" stroke-opacity="0" stroke-width="1px" style="cursor: move;" width="50" x="-2" y="-3"/>
<line stroke="#495879" stroke-opacity="1" stroke-width="1px" style="cursor: move;" x1="0" x2="46" y1="15" y2="15"/>
<text fill="rgb(82,92,97)" font-family="verdana" font-size="8.0625" font-style="normal" font-weight="normal" style="cursor: move;" visibility="visible" x="3" y="3">
<tspan dy="1em" x="3">Rate Menu</tspan>
</text>
<g focusable="true" height="9" preserveAspectRatio="none" transform="translate(0,3) scale(0,0.09)" width="0"/>
<ellipse cx="49" cy="15" fill="rgb(224,229,239)" height="6" rx="3" ry="3" stroke="rgb(2,59,185)" stroke-width="1px" style="cursor: default;" visibility="visible" width="6"/>
</g>
<g focusable="true" height="100" preserveAspectRatio="none" transform="translate(354,17) scale(1,1)" visibility="visible" width="100">
<rect fill="rgb(252,235,192)" fill-opacity="0" height="20" rx="3" ry="3" stroke="rgb(241,163,39)" stroke-opacity="0" stroke-width="1px" style="cursor: move;" width="63" x="-2" y="-3"/>
<line stroke="#495879" stroke-opacity="1" stroke-width="1px" style="cursor: move;" x1="0" x2="59" y1="14" y2="14"/>
<text fill="rgb(82,92,97)" font-family="verdana" font-size="8.0625" font-style="normal" font-weight="normal" style="cursor: move;" visibility="visible" x="3" y="3">
<tspan dy="1em" x="3">Voew 3 Videos</tspan>
</text>
<g focusable="true" height="8" preserveAspectRatio="none" transform="translate(0,3) scale(0,0.08)" width="0"/>
<ellipse cx="62" cy="14" fill="rgb(224,229,239)" height="6" rx="3" ry="3" stroke="rgb(2,59,185)" stroke-width="1px" style="cursor: default;" visibility="visible" width="6"/>
</g>
<g focusable="true" height="100" preserveAspectRatio="none" transform="translate(443,17) scale(1,1)" visibility="visible" width="100">
<rect fill="rgb(252,235,192)" fill-opacity="0" height="20" rx="3" ry="3" stroke="rgb(241,163,39)" stroke-opacity="0" stroke-width="1px" style="cursor: move;" width="28" x="-2" y="-3"/>
<line stroke="#495879" stroke-opacity="1" stroke-width="1px" style="cursor: move;" x1="0" x2="24" y1="14" y2="14"/>
<text fill="rgb(82,92,97)" font-family="verdana" font-size="8.0625" font-style="normal" font-weight="normal" style="cursor: move;" visibility="visible" x="3" y="3">
<tspan dy="1em" x="3">Rate </tspan>
</text>
<g focusable="true" height="8" preserveAspectRatio="none" transform="translate(0,3) scale(0,0.08)" width="0"/>
<ellipse cx="27" cy="14" fill="rgb(224,229,239)" height="6" rx="3" ry="3" stroke="rgb(2,59,185)" stroke-width="1px" style="cursor: default;" visibility="visible" width="6"/>
</g>
<g focusable="true" height="100" preserveAspectRatio="none" transform="translate(497,5) scale(1,1)" visibility="visible" width="100">
<rect fill="rgb(252,235,192)" fill-opacity="0" height="20" rx="3" ry="3" stroke="rgb(241,163,39)" stroke-opacity="0" stroke-width="1px" style="cursor: move;" width="76" x="-2" y="-3"/>
<line stroke="#495879" stroke-opacity="1" stroke-width="1px" style="cursor: move;" x1="0" x2="72" y1="14" y2="14"/>
<text fill="rgb(82,92,97)" font-family="verdana" font-size="8.0625" font-style="normal" font-weight="normal" style="cursor: move;" visibility="visible" x="3" y="3">
<tspan dy="1em" x="3">0 ( ZERO ) &gt; Deny</tspan>
</text>
<g focusable="true" height="8" preserveAspectRatio="none" transform="translate(0,3) scale(0,0.08)" width="0"/>
<ellipse cx="3" cy="3" fill="rgb(224,229,239)" height="6" rx="3" ry="3" stroke="rgb(2,59,185)" stroke-width="1px" style="cursor: default;" visibility="hidden" width="6"/>
</g>
<g focusable="true" height="100" preserveAspectRatio="none" transform="translate(497,29) scale(1,1)" visibility="visible" width="100">
<rect fill="rgb(252,235,192)" fill-opacity="0" height="20" rx="3" ry="3" stroke="rgb(241,163,39)" stroke-opacity="0" stroke-width="1px" style="cursor: move;" width="76" x="-2" y="-3"/>
<line stroke="#495879" stroke-opacity="1" stroke-width="1px" style="cursor: move;" x1="0" x2="72" y1="14" y2="14"/>
<text fill="rgb(82,92,97)" font-family="verdana" font-size="8.0625" font-style="normal" font-weight="normal" style="cursor: move;" visibility="visible" x="3" y="3">
<tspan dy="1em" x="3">1( ONE ) Approve</tspan>
</text>
<g focusable="true" height="8" preserveAspectRatio="none" transform="translate(0,3) scale(0,0.08)" width="0"/>
<ellipse cx="3" cy="3" fill="rgb(224,229,239)" height="6" rx="3" ry="3" stroke="rgb(2,59,185)" stroke-width="1px" style="cursor: default;" visibility="hidden" width="6"/>
</g>
<g focusable="true" height="100" preserveAspectRatio="none" transform="translate(210,128) scale(1,1)" visibility="visible" width="100">
<rect fill="rgb(252,235,192)" fill-opacity="0" height="20" rx="3" ry="3" stroke="rgb(241,163,39)" stroke-opacity="0" stroke-width="1px" style="cursor: move;" width="53" x="-2" y="-3"/>
<line stroke="#495879" stroke-opacity="1" stroke-width="1px" style="cursor: move;" x1="0" x2="49" y1="14" y2="14"/>
<text fill="rgb(82,92,97)" font-family="verdana" font-size="8.0625" font-style="normal" font-weight="normal" style="cursor: move;" visibility="visible" x="3" y="3">
<tspan dy="1em" x="3">Registration</tspan>
</text>
<g focusable="true" height="8" preserveAspectRatio="none" transform="translate(0,3) scale(0,0.08)" width="0"/>
<ellipse cx="52" cy="14" fill="rgb(224,229,239)" height="6" rx="3" ry="3" stroke="rgb(2,59,185)" stroke-width="1px" style="cursor: default;" visibility="visible" width="6"/>
</g>
<g focusable="true" height="100" preserveAspectRatio="none" transform="translate(289,52) scale(1,1)" visibility="visible" width="100">
<rect fill="rgb(252,235,192)" fill-opacity="0" height="21" rx="3.15" ry="3.15" stroke="rgb(241,163,39)" stroke-opacity="0" stroke-width="1px" style="cursor: move;" width="45" x="-2" y="-3"/>
<line stroke="#495879" stroke-opacity="1" stroke-width="1px" style="cursor: move;" x1="0" x2="41" y1="15" y2="15"/>
<text fill="rgb(82,92,97)" font-family="verdana" font-size="8.0625" font-style="normal" font-weight="normal" style="cursor: move;" visibility="visible" x="3" y="3">
<tspan dy="1em" x="3">Facebook</tspan>
</text>
<g focusable="true" height="9" preserveAspectRatio="none" transform="translate(0,3) scale(0,0.09)" width="0"/>
<ellipse cx="3" cy="3" fill="rgb(224,229,239)" height="6" rx="3" ry="3" stroke="rgb(2,59,185)" stroke-width="1px" style="cursor: default;" visibility="hidden" width="6"/>
</g>
<g focusable="true" height="100" preserveAspectRatio="none" transform="translate(289,77) scale(1,1)" visibility="visible" width="100">
<rect fill="rgb(252,235,192)" fill-opacity="0" height="21" rx="3.15" ry="3.15" stroke="rgb(241,163,39)" stroke-opacity="0" stroke-width="1px" style="cursor: move;" width="38" x="-2" y="-3"/>
<line stroke="#495879" stroke-opacity="1" stroke-width="1px" style="cursor: move;" x1="0" x2="34" y1="15" y2="15"/>
<text fill="rgb(82,92,97)" font-family="verdana" font-size="8.0625" font-style="normal" font-weight="normal" style="cursor: move;" visibility="visible" x="3" y="3">
<tspan dy="1em" x="3">Twitter</tspan>
</text>
<g focusable="true" height="9" preserveAspectRatio="none" transform="translate(0,3) scale(0,0.09)" width="0"/>
<ellipse cx="3" cy="3" fill="rgb(224,229,239)" height="6" rx="3" ry="3" stroke="rgb(2,59,185)" stroke-width="1px" style="cursor: default;" visibility="hidden" width="6"/>
</g>
<g focusable="true" height="100" preserveAspectRatio="none" transform="translate(289,102) scale(1,1)" visibility="visible" width="100">
<rect fill="rgb(252,235,192)" fill-opacity="0" height="21" rx="3.15" ry="3.15" stroke="rgb(241,163,39)" stroke-opacity="0" stroke-width="1px" style="cursor: move;" width="36" x="-2" y="-3"/>
<line stroke="#495879" stroke-opacity="1" stroke-width="1px" style="cursor: move;" x1="0" x2="32" y1="15" y2="15"/>
<text fill="rgb(82,92,97)" font-family="verdana" font-size="8.0625" font-style="normal" font-weight="normal" style="cursor: move;" visibility="visible" x="3" y="3">
<tspan dy="1em" x="3">Github</tspan>
</text>
<g focusable="true" height="9" preserveAspectRatio="none" transform="translate(0,3) scale(0,0.09)" width="0"/>
<ellipse cx="3" cy="3" fill="rgb(224,229,239)" height="6" rx="3" ry="3" stroke="rgb(2,59,185)" stroke-width="1px" style="cursor: default;" visibility="hidden" width="6"/>
</g>
<g focusable="true" height="100" preserveAspectRatio="none" transform="translate(289,127) scale(1,1)" visibility="visible" width="100">
<rect fill="rgb(252,235,192)" fill-opacity="0" height="21" rx="3.15" ry="3.15" stroke="rgb(241,163,39)" stroke-opacity="0" stroke-width="1px" style="cursor: move;" width="32" x="-2" y="-3"/>
<line stroke="#495879" stroke-opacity="1" stroke-width="1px" style="cursor: move;" x1="0" x2="28" y1="15" y2="15"/>
<text fill="rgb(82,92,97)" font-family="verdana" font-size="8.0625" font-style="normal" font-weight="normal" style="cursor: move;" visibility="visible" x="3" y="3">
<tspan dy="1em" x="3">Email</tspan>
</text>
<g focusable="true" height="9" preserveAspectRatio="none" transform="translate(0,3) scale(0,0.09)" width="0"/>
<ellipse cx="3" cy="3" fill="rgb(224,229,239)" height="6" rx="3" ry="3" stroke="rgb(2,59,185)" stroke-width="1px" style="cursor: default;" visibility="hidden" width="6"/>
</g>
<g focusable="true" height="100" preserveAspectRatio="none" transform="translate(289,152) scale(1,1)" visibility="visible" width="100">
<rect fill="rgb(252,235,192)" fill-opacity="0" height="21" rx="3.15" ry="3.15" stroke="rgb(241,163,39)" stroke-opacity="0" stroke-width="1px" style="cursor: move;" width="62" x="-2" y="-3"/>
<line stroke="#495879" stroke-opacity="1" stroke-width="1px" style="cursor: move;" x1="0" x2="58" y1="15" y2="15"/>
<text fill="rgb(82,92,97)" font-family="verdana" font-size="8.0625" font-style="normal" font-weight="normal" style="cursor: move;" visibility="visible" x="3" y="3">
<tspan dy="1em" x="3">Phone Number</tspan>
</text>
<g focusable="true" height="9" preserveAspectRatio="none" transform="translate(0,3) scale(0,0.09)" width="0"/>
<ellipse cx="3" cy="3" fill="rgb(224,229,239)" height="6" rx="3" ry="3" stroke="rgb(2,59,185)" stroke-width="1px" style="cursor: default;" visibility="hidden" width="6"/>
</g>
<line fill-opacity="0.3" stroke="#6589de" stroke-opacity="0.3" stroke-width="1px" visibility="hidden" x1="229" x2="234" y1="-12" y2="33"/>
<line fill-opacity="0.3" stroke="#6589de" stroke-opacity="0.3" stroke-width="1px" visibility="hidden" x1="235" x2="236" y1="123" y2="78"/>
<ellipse cx="234" cy="33" fill="gray" height="6" rx="3" ry="3" stroke="#6589de" stroke-width="1px" style="cursor: pointer;" visibility="hidden" width="6"/>
<ellipse cx="236" cy="78" fill="gray" height="6" rx="3" ry="3" stroke="#6589de" stroke-width="1px" style="cursor: pointer;" visibility="hidden" width="6"/>
<g focusable="true" height="100" preserveAspectRatio="none" transform="translate(84,-185) scale(1,1)" visibility="visible" width="100">
<rect fill="rgb(252,235,192)" fill-opacity="0" height="23" rx="3.4499999999999997" ry="3.4499999999999997" stroke="rgb(241,163,39)" stroke-opacity="0" stroke-width="1px" style="cursor: move;" width="38" x="-2" y="-3"/>
<line stroke="#495879" stroke-opacity="1" stroke-width="1px" style="cursor: move;" visibility="visible" x1="0" x2="34" y1="17" y2="17"/>
<text fill="rgb(82,92,97)" font-family="verdana" font-size="10.75" font-style="normal" font-weight="normal" style="cursor: move;" visibility="visible" x="3" y="3">
<tspan dy="1em" x="3">Brands</tspan>
</text>
<g focusable="true" height="11" preserveAspectRatio="none" transform="translate(0,3) scale(0,0.11)" width="0"/>
<ellipse cx="37" cy="17" fill="rgb(224,229,239)" height="6" rx="3" ry="3" stroke="rgb(2,59,185)" stroke-width="1px" style="cursor: default;" visibility="visible" width="6"/>
</g>
<g focusable="true" height="100" preserveAspectRatio="none" transform="translate(148,-183) scale(1,1)" visibility="visible" width="100">
<rect fill="rgb(252,235,192)" fill-opacity="0" height="21" rx="3.15" ry="3.15" stroke="rgb(241,163,39)" stroke-opacity="0" stroke-width="1px" style="cursor: move;" width="42" x="-2" y="-3"/>
<line stroke="#495879" stroke-opacity="1" stroke-width="1px" style="cursor: move;" x1="0" x2="38" y1="15" y2="15"/>
<text fill="rgb(82,92,97)" font-family="verdana" font-size="8.0625" font-style="normal" font-weight="normal" style="cursor: move;" visibility="visible" x="3" y="3">
<tspan dy="1em" x="3">Industry </tspan>
</text>
<g focusable="true" height="9" preserveAspectRatio="none" transform="translate(0,3) scale(0,0.09)" width="0"/>
<ellipse cx="41" cy="15" fill="rgb(224,229,239)" height="6" rx="3" ry="3" stroke="rgb(2,59,185)" stroke-width="1px" style="cursor: default;" visibility="visible" width="6"/>
</g>
<g focusable="true" height="100" preserveAspectRatio="none" transform="translate(216,-183) scale(1,1)" visibility="visible" width="100">
<rect fill="rgb(252,235,192)" fill-opacity="0" height="21" rx="3.15" ry="3.15" stroke="rgb(241,163,39)" stroke-opacity="0" stroke-width="1px" style="cursor: move;" width="43" x="-2" y="-3"/>
<line stroke="#495879" stroke-opacity="1" stroke-width="1px" style="cursor: move;" x1="0" x2="39" y1="15" y2="15"/>
<text fill="rgb(82,92,97)" font-family="verdana" font-size="8.0625" font-style="normal" font-weight="normal" style="cursor: move;" visibility="visible" x="3" y="3">
<tspan dy="1em" x="3">Category</tspan>
</text>
<g focusable="true" height="9" preserveAspectRatio="none" transform="translate(0,3) scale(0,0.09)" width="0"/>
<ellipse cx="42" cy="15" fill="rgb(224,229,239)" height="6" rx="3" ry="3" stroke="rgb(2,59,185)" stroke-width="1px" style="cursor: default;" visibility="visible" width="6"/>
</g>
<g focusable="true" height="100" preserveAspectRatio="none" transform="translate(286,-195) scale(1,1)" visibility="visible" width="100">
<rect fill="rgb(252,235,192)" fill-opacity="0" height="21" rx="3.15" ry="3.15" stroke="rgb(241,163,39)" stroke-opacity="0" stroke-width="1px" style="cursor: move;" width="46" x="-2" y="-3"/>
<line stroke="#495879" stroke-opacity="1" stroke-width="1px" style="cursor: move;" x1="0" x2="42" y1="15" y2="15"/>
<text fill="rgb(82,92,97)" font-family="verdana" font-size="8.0625" font-style="normal" font-weight="normal" style="cursor: move;" visibility="visible" x="3" y="3">
<tspan dy="1em" x="3">Education</tspan>
</text>
<g focusable="true" height="9" preserveAspectRatio="none" transform="translate(0,3) scale(0,0.09)" width="0"/>
<ellipse cx="3" cy="3" fill="rgb(224,229,239)" height="6" rx="3" ry="3" stroke="rgb(2,59,185)" stroke-width="1px" style="cursor: default;" visibility="hidden" width="6"/>
</g>
<g focusable="true" height="100" preserveAspectRatio="none" transform="translate(285,-170) scale(1,1)" visibility="visible" width="100">
<rect fill="rgb(252,235,192)" fill-opacity="0" height="21" rx="3.15" ry="3.15" stroke="rgb(241,163,39)" stroke-opacity="0" stroke-width="1px" style="cursor: move;" width="51" x="-2" y="-3"/>
<line stroke="#495879" stroke-opacity="1" stroke-width="1px" style="cursor: move;" x1="0" x2="47" y1="15" y2="15"/>
<text fill="rgb(82,92,97)" font-family="verdana" font-size="8.0625" font-style="normal" font-weight="normal" style="cursor: move;" visibility="visible" x="3" y="3">
<tspan dy="1em" x="3">Products X</tspan>
</text>
<g focusable="true" height="9" preserveAspectRatio="none" transform="translate(0,3) scale(0,0.09)" width="0"/>
<ellipse cx="3" cy="3" fill="rgb(224,229,239)" height="6" rx="3" ry="3" stroke="rgb(2,59,185)" stroke-width="1px" style="cursor: default;" visibility="hidden" width="6"/>
</g>
<g focusable="true" height="100" preserveAspectRatio="none" transform="translate(84,-156) scale(1,1)" visibility="visible" width="100">
<rect fill="rgb(252,235,192)" fill-opacity="0" height="23" rx="3.4499999999999997" ry="3.4499999999999997" stroke="rgb(241,163,39)" stroke-opacity="0" stroke-width="1px" style="cursor: move;" width="74" x="-2" y="-3"/>
<line stroke="#495879" stroke-opacity="1" stroke-width="1px" style="cursor: move;" visibility="visible" x1="0" x2="70" y1="17" y2="17"/>
<text fill="rgb(82,92,97)" font-family="verdana" font-size="10.75" font-style="normal" font-weight="normal" style="cursor: move;" visibility="visible" x="3" y="3">
<tspan dy="1em" x="3">Extra Challenge</tspan>
</text>
<g focusable="true" height="11" preserveAspectRatio="none" transform="translate(0,3) scale(0,0.11)" width="0"/>
<ellipse cx="73" cy="17" fill="rgb(224,229,239)" height="6" rx="3" ry="3" stroke="rgb(2,59,185)" stroke-width="1px" style="cursor: default;" visibility="visible" width="6"/>
</g>
<g focusable="true" height="100" preserveAspectRatio="none" transform="translate(184,-154) scale(1,1)" visibility="visible" width="100">
<rect fill="rgb(252,235,192)" fill-opacity="0" height="21" rx="3.15" ry="3.15" stroke="rgb(241,163,39)" stroke-opacity="0" stroke-width="1px" style="cursor: move;" width="100" x="-2" y="-3"/>
<line stroke="#495879" stroke-opacity="1" stroke-width="1px" style="cursor: move;" x1="0" x2="96" y1="15" y2="15"/>
<text fill="rgb(82,92,97)" font-family="verdana" font-size="8.0625" font-style="normal" font-weight="normal" style="cursor: move;" visibility="visible" x="3" y="3">
<tspan dy="1em" x="3">Offer Device to New USer</tspan>
</text>
<g focusable="true" height="9" preserveAspectRatio="none" transform="translate(0,3) scale(0,0.09)" width="0"/>
<ellipse cx="3" cy="3" fill="rgb(224,229,239)" height="6" rx="3" ry="3" stroke="rgb(2,59,185)" stroke-width="1px" style="cursor: default;" visibility="hidden" width="6"/>
</g>
<g focusable="true" height="100" preserveAspectRatio="none" transform="translate(289,177) scale(1,1)" visibility="visible" width="100">
<rect fill="rgb(252,235,192)" fill-opacity="0" height="21" rx="3.15" ry="3.15" stroke="rgb(241,163,39)" stroke-opacity="0" stroke-width="1px" style="cursor: move;" width="30" x="-2" y="-3"/>
<line stroke="#495879" stroke-opacity="1" stroke-width="1px" style="cursor: move;" x1="0" x2="26" y1="15" y2="15"/>
<text fill="rgb(82,92,97)" font-family="verdana" font-size="8.0625" font-style="normal" font-weight="normal" style="cursor: move;" visibility="visible" x="3" y="3">
<tspan dy="1em" x="3">Slack</tspan>
</text>
<g focusable="true" height="9" preserveAspectRatio="none" transform="translate(0,3) scale(0,0.09)" width="0"/>
<ellipse cx="3" cy="3" fill="rgb(224,229,239)" height="6" rx="3" ry="3" stroke="rgb(2,59,185)" stroke-width="1px" style="cursor: default;" visibility="hidden" width="6"/>
</g>
<g focusable="true" height="100" preserveAspectRatio="none" transform="translate(289,202) scale(1,1)" visibility="visible" width="100">
<rect fill="rgb(252,235,192)" fill-opacity="0" height="21" rx="3.15" ry="3.15" stroke="rgb(241,163,39)" stroke-opacity="0" stroke-width="1px" style="cursor: move;" width="29" x="-2" y="-3"/>
<line stroke="#495879" stroke-opacity="1" stroke-width="1px" style="cursor: move;" x1="0" x2="25" y1="15" y2="15"/>
<text fill="rgb(82,92,97)" font-family="verdana" font-size="8.0625" font-style="normal" font-weight="normal" style="cursor: move;" visibility="visible" x="3" y="3">
<tspan dy="1em" x="3">ETC</tspan>
</text>
<g focusable="true" height="9" preserveAspectRatio="none" transform="translate(0,3) scale(0,0.09)" width="0"/>
<ellipse cx="3" cy="3" fill="rgb(224,229,239)" height="6" rx="3" ry="3" stroke="rgb(2,59,185)" stroke-width="1px" style="cursor: default;" visibility="hidden" width="6"/>
</g>
<g focusable="true" height="100" preserveAspectRatio="none" transform="translate(278,-91) scale(1,1)" visibility="visible" width="100">
<rect fill="rgb(252,235,192)" fill-opacity="0" height="20" rx="3" ry="3" stroke="rgb(241,163,39)" stroke-opacity="0" stroke-width="1px" style="cursor: move;" width="49" x="-2" y="-3"/>
<line stroke="#495879" stroke-opacity="1" stroke-width="1px" style="cursor: move;" x1="0" x2="45" y1="14" y2="14"/>
<text fill="rgb(82,92,97)" font-family="verdana" font-size="8.0625" font-style="normal" font-weight="normal" style="cursor: move;" visibility="visible" x="3" y="3">
<tspan dy="1em" x="3">LOGOUT</tspan>
</text>
<g focusable="true" height="8" preserveAspectRatio="none" transform="translate(0,3) scale(0,0.08)" width="0"/>
<ellipse cx="3" cy="3" fill="rgb(224,229,239)" height="6" rx="3" ry="3" stroke="rgb(2,59,185)" stroke-width="1px" style="cursor: default;" visibility="hidden" width="6"/>
</g>
<g focusable="true" height="100" preserveAspectRatio="none" transform="translate(84,-129) scale(1,1)" visibility="visible" width="100">
<rect fill="rgb(252,235,192)" fill-opacity="0" height="23" rx="3.4499999999999997" ry="3.4499999999999997" stroke="rgb(241,163,39)" stroke-opacity="0" stroke-width="1px" style="cursor: move;" width="74" x="-2" y="-3"/>
<line stroke="#495879" stroke-opacity="1" stroke-width="1px" style="cursor: move;" visibility="visible" x1="0" x2="70" y1="17" y2="17"/>
<text fill="rgb(82,92,97)" font-family="verdana" font-size="10.75" font-style="normal" font-weight="normal" style="cursor: move;" visibility="visible" x="3" y="3">
<tspan dy="1em" x="3">Eternal License</tspan>
</text>
<g focusable="true" height="11" preserveAspectRatio="none" transform="translate(0,3) scale(0,0.11)" width="0"/>
<ellipse cx="3" cy="3" fill="rgb(224,229,239)" height="6" rx="3" ry="3" stroke="rgb(2,59,185)" stroke-width="1px" style="cursor: default;" visibility="hidden" width="6"/>
</g>
<path d="M229,-12 C231,33 233,78 235,123" fill="#495879" fill-opacity="1" stroke="#9b74e6" stroke-dasharray="4,2" stroke-opacity="1" stroke-width="2px" style="fill: none; cursor: pointer;" visibility="visible"/>
<g focusable="true" height="100" preserveAspectRatio="none" transform="translate(458,-67) scale(1,1)" visibility="visible" width="100">
<rect fill="rgb(252,235,192)" fill-opacity="0" height="21" rx="3.15" ry="3.15" stroke="rgb(241,163,39)" stroke-opacity="0" stroke-width="1px" style="cursor: move;" width="44" x="-2" y="-3"/>
<line stroke="#495879" stroke-opacity="1" stroke-width="1px" style="cursor: move;" x1="0" x2="40" y1="15" y2="15"/>
<text fill="rgb(82,92,97)" font-family="verdana" font-size="8.0625" font-style="normal" font-weight="normal" style="cursor: move;" visibility="visible" x="3" y="3">
<tspan dy="1em" x="3">0 &gt; 255+</tspan>
</text>
<g focusable="true" height="9" preserveAspectRatio="none" transform="translate(0,3) scale(0,0.09)" width="0"/>
<ellipse cx="38" cy="15" fill="rgb(224,229,239)" height="6" rx="3" ry="3" stroke="rgb(2,59,185)" stroke-width="1px" style="cursor: default;" visibility="hidden" width="6"/>
</g>
<g focusable="true" height="100" preserveAspectRatio="none" transform="translate(456,-43) scale(1,1)" visibility="visible" width="100">
<rect fill="rgb(252,235,192)" fill-opacity="0" height="21" rx="3.15" ry="3.15" stroke="rgb(241,163,39)" stroke-opacity="0" stroke-width="1px" style="cursor: move;" width="44" x="-2" y="-3"/>
<line stroke="#495879" stroke-opacity="1" stroke-width="1px" style="cursor: move;" x1="0" x2="40" y1="15" y2="15"/>
<text fill="rgb(82,92,97)" font-family="verdana" font-size="8.0625" font-style="normal" font-weight="normal" style="cursor: move;" visibility="visible" x="3" y="3">
<tspan dy="1em" x="3">0 &gt; 255+</tspan>
</text>
<g focusable="true" height="9" preserveAspectRatio="none" transform="translate(0,3) scale(0,0.09)" width="0"/>
<ellipse cx="3" cy="3" fill="rgb(224,229,239)" height="6" rx="3" ry="3" stroke="rgb(2,59,185)" stroke-width="1px" style="cursor: default;" visibility="hidden" width="6"/>
</g>
<g focusable="true" height="100" preserveAspectRatio="none" transform="translate(454,-19) scale(1,1)" visibility="visible" width="100">
<rect fill="rgb(252,235,192)" fill-opacity="0" height="21" rx="3.15" ry="3.15" stroke="rgb(241,163,39)" stroke-opacity="0" stroke-width="1px" style="cursor: move;" width="44" x="-2" y="-3"/>
<line stroke="#495879" stroke-opacity="1" stroke-width="1px" style="cursor: move;" x1="0" x2="40" y1="15" y2="15"/>
<text fill="rgb(82,92,97)" font-family="verdana" font-size="8.0625" font-style="normal" font-weight="normal" style="cursor: move;" visibility="visible" x="3" y="3">
<tspan dy="1em" x="3">0 &gt; 255+</tspan>
</text>
<g focusable="true" height="9" preserveAspectRatio="none" transform="translate(0,3) scale(0,0.09)" width="0"/>
<ellipse cx="3" cy="3" fill="rgb(224,229,239)" height="6" rx="3" ry="3" stroke="rgb(2,59,185)" stroke-width="1px" style="cursor: default;" visibility="hidden" width="6"/>
</g>
<rect fill="#CC0033" fill-opacity="0.4" height="6" rx="0" ry="0" stroke="#FF9933" stroke-opacity="0.4" stroke-width="1px" visibility="hidden" width="50" x="449" y="-40"/>
</svg>
